<svg width="1920" height="183" viewBox="0 0 1920 183" fill="none" xmlns="http://www.w3.org/2000/svg">
<path fill-rule="evenodd" clip-rule="evenodd" d="M0 0L64 3.38889C128 6.77778 196 24.1458 324 51.2569C452 78.3681 560 86.9815 688 83.5926C816 80.2037 984 43.6319 1112 43.6319C1240 43.6319 1408 108.444 1536 108.444C1664 108.444 1792 54.2222 1856 27.1111L1920 0V183H1856C1792 183 1664 183 1536 183C1408 183 1280 183 1152 183C1024 183 896 183 768 183C640 183 512 183 384 183C256 183 128 183 64 183H0V0Z" fill="white"/>
</svg>
